inDegrees=yes
name=ik_MT_012005D6_009-001_orientations
DataType=double
version=3
OpenSimVersion=4.2-2021-03-12-fcedec9
endheader
time	pelvis_tilt	pelvis_list	pelvis_rotation	pelvis_tx	pelvis_ty	pelvis_tz	hip_flexion_r	hip_adduction_r	hip_rotation_r	knee_angle_r	knee_angle_r_beta	ankle_angle_r	subtalar_angle_r	mtp_angle_r	hip_flexion_l	hip_adduction_l	hip_rotation_l	knee_angle_l	knee_angle_l_beta	ankle_angle_l	subtalar_angle_l	mtp_angle_l	lumbar_extension	lumbar_bending	lumbar_rotation	arm_flex_r	arm_add_r	arm_rot_r	elbow_flex_r	pro_sup_r	wrist_flex_r	wrist_dev_r	arm_flex_l	arm_add_l	arm_rot_l	elbow_flex_l	pro_sup_l	wrist_flex_l	wrist_dev_l
7.25999999999989	0.3774002363890152	-1.49460340697057	142.9986238256733	0	0.9399999999999999	0	-9.324688164667085	-4.109704087474281	4.838586527532744	20.82719563648904	0.3635031378137298	4.132150404372414	0	0	24.86711843691888	-5.037712201745196	-8.170316945297383	1.375255594959544	0.02400273818851757	10.26906671159811	0	0	-6.247885744081221	-5.377840108438148	12.04472325889605	0	-2.072041162936208	0	25.04259326293713	23.05786164139239	0	0	0	-2.072041162936208	0	25.04259326293713	23.05786164139239	0	0
7.269999999999889	0.2748725582652283	-1.456759492666084	142.8193961672289	0	0.9399999999999999	0	-9.576995537564317	-4.444400159515379	4.801579288075958	21.4464763922783	0.3743116259964913	2.860387544195467	0	0	24.31496329292168	-4.831633808309091	-7.765876502192714	1.143869310434024	0.01996428567959085	8.442873399669343	0	0	-6.086643912519397	-5.404282951569152	11.8423710616158	0	-2.103218994207462	0	25.31786450617642	23.27843373569586	0	0	0	-2.103218994207462	0	25.31786450617642	23.27843373569586	0	0
7.279999999999889	0.1005049404262738	-1.473590389971416	142.6960523670167	0	0.9399999999999999	0	-9.798931339140433	-4.886250464350708	4.644249878444472	22.19421474825781	0.3873621222517832	1.459510809498588	0	0	23.67796067486492	-4.448694647422124	-7.436739860762575	0.8663948362318615	0.01512144251452304	6.812405268944862	0	0	-5.994671166958705	-5.495490406394366	11.61390626883689	0	-2.131930331221543	0	25.57444257921996	23.48448385130821	0	0	0	-2.131930331221543	0	25.57444257921996	23.48448385130821	0	0
7.289999999999889	-0.08924501433558409	-1.603678833389119	142.6673315716143	0	0.9399999999999999	0	-9.853619716289769	-5.378258794152915	4.306066810840144	23.06364406169918	0.4025365263846889	-0.232537383640759	0	0	22.99221689668354	-3.9480052126942	-7.105188489858345	1.008858609376975	0.01760790442071955	5.900550041539642	0	0	-5.848716774891687	-5.656343694437067	11.33855315300621	0	-2.168637179445739	0	25.889149306305	23.73430432449098	0	0	0	-2.168637179445739	0	25.889149306305	23.73430432449098	0	0
7.299999999999889	-0.3315572948314957	-1.898760772161544	142.7711489957593	0	0.9399999999999999	0	-9.847791249085441	-6.062974599388326	3.712318411659112	24.02205664097158	0.4192639814855235	-2.143178510820383	0	0	22.45741090941281	-3.146188124543295	-6.700614230368239	1.515946144711614	0.02645825150813209	5.269663858935927	0	0	-5.700310407172006	-5.982948167985771	10.9521689781297	0	-2.214486693244378	0	26.28328080215038	24.04756285255472	0	0	0	-2.214486693244378	0	26.28328080215038	24.04756285255472	0	0
7.309999999999889	-0.555880508637185	-2.230230807772039	142.861019055476	0	0.9399999999999999	0	-9.634900762670025	-6.823460030184767	2.984204525016838	25.08944485365993	0.4378934201939126	-4.533818802662379	0	0	22.1369060326941	-2.365816296680669	-6.432500464785203	2.056042062542434	0.03588470355086065	4.46999172691033	0	0	-5.532670786268111	-6.334915134844508	10.61318439454672	0	-2.265296264260661	0	26.71100407054865	24.3846308253726	0	0	0	-2.265296264260661	0	26.71100407054865	24.3846308253726	0	0
7.319999999999888	-0.7886766290216201	-2.590704485264967	142.9844642182763	0	0.9399999999999999	0	-9.283011225864028	-7.67621115701506	2.078354698848724	26.30081806481226	0.4590358711989773	-7.23923866203053	0	0	22.02368104852316	-1.675847963861222	-6.400456390658301	2.5310912899635	0.04417587667841359	3.279264637481706	0	0	-5.386360077738043	-6.727056706401863	10.26222926604472	0	-2.32008459960235	0	27.16537405548318	24.74014900492316	0	0	0	-2.32008459960235	0	27.16537405548318	24.74014900492316	0	0
7.329999999999888	-0.9978667987428129	-2.942425546573719	143.1484658517536	0	0.9399999999999999	0	-8.76214099347426	-8.509578068105942	1.020711208710998	27.69652901814172	0.4833956227407252	-10.23467570562543	0	0	21.98340340374804	-1.075327039592888	-6.568151880256388	3.255129602723226	0.05681272914665526	2.197470538335246	0	0	-5.232178971323247	-7.128690988093708	9.891267388039372	0	-2.38762797841935	0	27.72806649369812	25.17929692346712	0	0	0	-2.38762797841935	0	27.72806649369812	25.17929692346712	0	0
7.339999999999888	-1.178716960417304	-3.266689164182096	143.3515316253921	0	0.9399999999999999	0	-8.104120160499956	-9.357475440319954	-0.06929807627537166	29.35756048926353	0.512386090891046	-13.36515565553125	0	0	22.03251248002928	-0.5361405825524799	-6.671513316690653	4.367342108250565	0.07622449934996296	1.521772728916004	0	0	-5.10754908239682	-7.533185085413102	9.510882261679656	0	-2.461813959307777	0	28.33423995231414	25.64863811993747	0	0	0	-2.461813959307777	0	28.33423995231414	25.64863811993747	0	0
7.349999999999888	-1.345022935406768	-3.535364159550955	143.5390056229665	0	0.9399999999999999	0	-7.335241305996978	-10.23818409489992	-1.011005280584779	31.25974189128409	0.5455854193265067	-16.54414523086726	0	0	22.11420634123666	-0.03629120038965852	-6.751904085744838	5.600623415716598	0.09774931876854577	0.9461672529686399	0	0	-5.039449274389249	-7.938972335373591	9.185947270126791	0	-2.537852454282183	0	28.94818967368623	26.12108074263124	0	0	0	-2.537852454282183	0	28.94818967368623	26.12108074263124	0	0
7.359999999999888	-1.487836290841299	-3.730963227396258	143.6728450205214	0	0.9399999999999999	0	-6.437588860719225	-11.10999045483683	-1.754982415460374	33.31211873351714	0.5814061527151576	-19.86038423842869	0	0	22.20362396437007	0.3453110695012514	-6.910277362531175	6.868076532354247	0.1198705487685365	0.4900208229309642	0	0	-5.021299083966659	-8.341406059558	8.969648774286735	0	-2.613934002610911	0	29.55120609936058	26.58064679979303	0	0	0	-2.613934002610911	0	29.55120609936058	26.58064679979303	0	0
7.369999999999887	-1.627216824815927	-3.884125675430891	143.7424565466833	0	0.9399999999999999	0	-5.403614733385751	-11.90928585706866	-2.342973520603524	35.46369329676241	0.6189582129459467	-23.40999621915651	0	0	22.27262504228697	0.7108453846141982	-7.209869734741421	8.201971106031365	0.1431514009536883	0.2375483973423388	0	0	-5.072274335078752	-8.77044823547091	8.823458579938313	0	-2.688366108070474	0	30.13545362342644	27.02319091605752	0	0	0	-2.688366108070474	0	30.13545362342644	27.02319091605752	0	0
7.379999999999887	-1.750485582225148	-3.951056484657857	143.7388981221856	0	0.9399999999999999	0	-4.264358060168212	-12.60604598503633	-2.729068853092234	37.68380922444927	0.6577065456600506	-26.9883796015221	0	0	22.31325591280829	1.036827952415958	-7.605132664322492	9.540200879472154	0.1665079166484478	0.06707253038454017	0	0	-5.18824173977262	-9.112851049098349	8.739406978491713	0	-2.759777979517697	0	30.69543910976368	27.44625611113582	0	0	0	-2.759777979517697	0	30.69543910976368	27.44625611113582	0	0
7.389999999999887	-1.836362438627035	-3.862101409281111	143.7158131630329	0	0.9399999999999999	0	-3.104645705127106	-13.12651953435283	-2.997911992051742	39.81810641755978	0.6949570588959022	-30.71349658449873	0	0	22.18474384074566	1.201056174765645	-7.892401764413988	10.69854468881112	0.1867248299915062	0.01180473794490975	0	0	-5.447788291117863	-9.25290666805771	8.710168810728533	0	-2.816224948237394	0	31.13890492965264	27.78057953231504	0	0	0	-2.816224948237394	0	31.13890492965264	27.78057953231504	0	0
7.399999999999887	-1.984324164336153	-3.768763589755384	143.6817515483533	0	0.9399999999999999	0	-2.029202321236848	-13.73202934179818	-3.12917570741412	41.82499980361402	0.7299839562190463	-34.08907626457965	0	0	21.96020640562185	1.310001325102277	-8.112554390770336	11.6962644287243	0.2041383244651327	0.09717617091207841	0	0	-5.743343663846183	-9.408850724026212	8.696373554456448	0	-2.828692061204613	0	31.26910373834651	27.88931113685702	0	0	0	-2.828692061204613	0	31.26910373834651	27.88931113685702	0	0
7.409999999999886	-2.092965591566538	-3.615871291260642	143.664465816042	0	0.9399999999999999	0	-0.9513144420856545	-14.21795956887514	-3.142098990181012	43.88998187001342	0.766024692272352	-36.23126434078172	0	0	21.80130324647232	1.360874230108527	-8.349142424203654	12.73175740536141	0.2222110862887269	0.2607472578453588	0	0	-6.079159676036792	-9.426923832526732	8.67065310056328	0	-2.833810388664326	0	31.32269615355268	27.93415727618769	0	0	0	-2.833810388664326	0	31.32269615355268	27.93415727618769	0	0
7.419999999999886	-2.166913311139219	-3.363836903226726	143.6606464439254	0	0.9399999999999999	0	0.004334272046215923	-14.43765023917206	-2.869026969850852	45.77909012725926	0.798995851287904	-36.61085174619468	0	0	21.6221342115008	1.265019214231468	-8.557658053658807	13.68719744446166	0.2388866607764096	0.3646882494348308	0	0	-6.463819002734248	-9.280592979122144	8.616840355057381	0	-2.83959270559547	0	31.38303473014334	27.98456976189062	0	0	0	-2.83959270559547	0	31.38303473014334	27.98456976189062	0	0
7.429999999999886	-2.218213976689689	-3.075406733436471	143.6374371735435	0	0.9399999999999999	0	0.9273868478317631	-14.42758431295146	-2.225119742320977	47.48428103395688	0.8287570469848448	-35.64046896051113	0	0	21.40860936940953	1.114612748477697	-8.722068846213759	14.45359322345814	0.252262790493285	0.4001384759892069	0	0	-6.818654004665412	-9.06186745571712	8.615597624642998	0	-2.847749547892836	0	31.46803804215597	28.05554344881125	0	0	0	-2.847749547892836	0	31.46803804215597	28.05554344881125	0	0
7.439999999999886	-2.338280113866705	-2.683951437583849	143.6380133347965	0	0.9399999999999999	0	1.649777466546029	-14.20633454980804	-1.38985679912774	49.03279744251019	0.8557837568352578	-33.55641760264042	0	0	20.93660232077151	0.9310804959858213	-8.683018859160233	15.03592695749811	0.2624264314977154	0.5395661353783709	0	0	-7.32635915861525	-8.780464357993752	8.579566431598264	0	-2.856121444204407	0	31.55457430014796	28.12746891049059	0	0	0	-2.856121444204407	0	31.55457430014796	28.12746891049059	0	0
7.449999999999886	-2.402950491399265	-2.336283716521625	143.6351543283608	0	0.9399999999999999	0	2.521893357215384	-13.95309938686906	-0.4194837306358119	50.65462363262703	0.8840899637478722	-30.79055637668926	0	0	20.40119643611436	0.7989913101542117	-8.474813911594374	15.51504181523475	0.270788563260444	0.7842216844929415	0	0	-7.722938249552004	-8.494174056354337	8.536060982116339	0	-2.865077970856082	0	31.64686758092072	28.20406032998863	0	0	0	-2.865077970856082	0	31.64686758092072	28.20406032998863	0	0
7.459999999999885	-2.447184444382371	-2.01255174043094	143.6467856296053	0	0.9399999999999999	0	3.364464095737179	-13.67441499437402	0.3378784996054917	52.11809609897424	0.909632376797913	-27.78605997019559	0	0	19.85364737434226	0.7402578537574707	-8.173470402780563	15.96790296451978	0.2786924813698334	1.087663417101745	0	0	-8.07458734544049	-8.205399161100772	8.503801698746688	0	-3.013481708374024	0	32.69156273578083	28.94245116742971	0	0	0	-3.013481708374024	0	32.69156273578083	28.94245116742971	0	0
7.469999999999885	-2.504212898261903	-1.689503001198182	143.6993962457886	0	0.9399999999999999	0	4.214777053116151	-13.4368866941974	0.858963374848504	53.37056388035753	0.9314920633581999	-24.88314395511283	0	0	19.24696435813362	0.7223881942764424	-7.828744564249492	16.24793419535861	0.2835799483563832	1.305951293437837	0	0	-8.396007364471584	-7.928238629770916	8.418493179797352	0	-3.122743547205082	0	33.42365299478001	29.4433852928509	0	0	0	-3.122743547205082	0	33.42365299478001	29.4433852928509	0	0
7.479999999999885	-2.568032773738012	-1.374843669692235	143.7897050874238	0	0.9399999999999999	0	5.023094579222432	-13.24543075268233	1.161662093702168	54.33088991642028	0.9482529145801207	-22.30820019876185	0	0	18.66850174109593	0.7636359827964514	-7.472042671882933	16.56883266464893	0.2891806832101094	1.647294182847319	0	0	-8.677937396416448	-7.659454886531041	8.303362229808201	0	-3.213806012082083	0	34.0299663930407	29.85627459888869	0	0	0	-3.213806012082083	0	34.0299663930407	29.85627459888869	0	0
